<mxfile host="Electron" modified="2024-05-13T00:50:15.592Z" agent="Mozilla/5.0 (Windows NT 10.0; Win64; x64) AppleWebKit/537.36 (KHTML, like Gecko) draw.io/21.2.8 Chrome/112.0.5615.165 Electron/24.2.0 Safari/537.36" etag="WmE7EHhCkPc2HjjkpZ2I" version="21.2.8" type="device">
  <diagram name="Page-1" id="QmIQwjLwlx2ogcl96MkP">
    <mxGraphModel dx="711" dy="463" grid="1" gridSize="10" guides="1" tooltips="1" connect="1" arrows="1" fold="1" page="1" pageScale="1" pageWidth="827" pageHeight="1169" math="0" shadow="0">
      <root>
        <mxCell id="0" />
        <mxCell id="1" parent="0" />
        <mxCell id="iN0wXc1VhD5NSmjhC2gz-1" value="" style="rounded=0;whiteSpace=wrap;html=1;fillColor=#b1ddf0;strokeColor=#000000;" vertex="1" parent="1">
          <mxGeometry x="80" y="120" width="240" height="340" as="geometry" />
        </mxCell>
        <mxCell id="iN0wXc1VhD5NSmjhC2gz-2" value="&lt;font face=&quot;Verdana&quot; style=&quot;font-size: 16px;&quot;&gt;&lt;b&gt;&amp;lt;header&amp;gt;&lt;/b&gt;&lt;/font&gt;" style="rounded=0;whiteSpace=wrap;html=1;fillColor=#b1ddf0;strokeColor=#000000;" vertex="1" parent="1">
          <mxGeometry x="90" y="130" width="220" height="40" as="geometry" />
        </mxCell>
        <mxCell id="iN0wXc1VhD5NSmjhC2gz-3" value="&lt;font face=&quot;Verdana&quot; style=&quot;font-size: 16px;&quot;&gt;&lt;b&gt;&amp;lt;nav&amp;gt;&lt;/b&gt;&lt;/font&gt;" style="rounded=0;whiteSpace=wrap;html=1;fillColor=#b1ddf0;strokeColor=#000000;" vertex="1" parent="1">
          <mxGeometry x="90" y="180" width="220" height="40" as="geometry" />
        </mxCell>
        <mxCell id="iN0wXc1VhD5NSmjhC2gz-4" value="&lt;font face=&quot;Verdana&quot; style=&quot;font-size: 16px;&quot;&gt;&lt;b&gt;&amp;lt;section&amp;gt;&lt;/b&gt;&lt;/font&gt;" style="rounded=0;whiteSpace=wrap;html=1;fillColor=#b1ddf0;strokeColor=#000000;" vertex="1" parent="1">
          <mxGeometry x="90" y="230" width="120" height="80" as="geometry" />
        </mxCell>
        <mxCell id="iN0wXc1VhD5NSmjhC2gz-5" value="&lt;font face=&quot;Verdana&quot; style=&quot;font-size: 16px;&quot;&gt;&lt;b&gt;&amp;lt;article&amp;gt;&lt;/b&gt;&lt;/font&gt;" style="rounded=0;whiteSpace=wrap;html=1;fillColor=#b1ddf0;strokeColor=#000000;" vertex="1" parent="1">
          <mxGeometry x="90" y="320" width="120" height="80" as="geometry" />
        </mxCell>
        <mxCell id="iN0wXc1VhD5NSmjhC2gz-6" value="&lt;font face=&quot;Verdana&quot; style=&quot;font-size: 16px;&quot;&gt;&lt;b&gt;&amp;lt;aside&amp;gt;&lt;/b&gt;&lt;/font&gt;" style="rounded=0;whiteSpace=wrap;html=1;fillColor=#b1ddf0;strokeColor=#000000;" vertex="1" parent="1">
          <mxGeometry x="220" y="230" width="90" height="170" as="geometry" />
        </mxCell>
        <mxCell id="iN0wXc1VhD5NSmjhC2gz-7" value="&lt;font face=&quot;Verdana&quot; style=&quot;font-size: 16px;&quot;&gt;&lt;b&gt;&amp;lt;footer&amp;gt;&lt;/b&gt;&lt;/font&gt;" style="rounded=0;whiteSpace=wrap;html=1;fillColor=#b1ddf0;strokeColor=#000000;" vertex="1" parent="1">
          <mxGeometry x="90" y="410" width="220" height="40" as="geometry" />
        </mxCell>
      </root>
    </mxGraphModel>
  </diagram>
</mxfile>
